<?xml version="1.0" encoding="UTF-8"?>
<svg id="Layer_1" data-name="Layer 1" xmlns="http://www.w3.org/2000/svg" viewBox="0 0 2000 1500">
  <defs>
    <style>
      .cls-1 {
        fill: #ff5b22;
      }

      .cls-1, .cls-2 {
        stroke-width: 0px;
      }

      .cls-2 {
        fill: #fff;
      }
    </style>
  </defs>
  <path class="cls-1" d="m1402.62,765.61l-50.76,63.95c-4.32,5.44-10.89,8.61-17.84,8.61h-420.52c-12.58,0-22.77-10.2-22.77-22.77v-130.8c0-12.58,10.2-22.77,22.77-22.77h420.27c7.1,0,13.8,3.31,18.1,8.96l51.01,66.85c6.32,8.29,6.21,19.81-.27,27.97Z"/>
  <path class="cls-2" d="m1378.97,750.35c0,8.44-6.85,15.3-15.3,15.3s-15.29-6.86-15.29-15.3,6.83-15.3,15.29-15.3,15.3,6.86,15.3,15.3Z"/>
  <g>
    <path class="cls-2" d="m922.13,699.22c0-1.84,1.49-3.33,3.33-3.33h38.7c31.52,0,55.05,23.21,55.05,54.11s-23.53,54.11-55.05,54.11h-38.7c-1.84,0-3.33-1.49-3.33-3.33v-101.54Zm18.66,16.23v69.08c0,1.1.9,2,2,2h21.05c20.7,0,36.23-15.68,36.23-36.54s-15.53-36.54-36.23-36.54h-21.05c-1.1,0-2,.9-2,2Z"/>
    <path class="cls-2" d="m1028.29,764.11c0-23.84,18.35-41.87,42.66-41.87s42.82,18.04,42.82,42.03c0,1.15-.04,2.35-.13,3.53-.13,1.73-1.59,3.06-3.33,3.06h-60.55c-1.38,0-2.33,1.36-1.89,2.67,3.41,10.1,12.31,16.62,23.87,16.62,8.6,0,16.12-3.53,20.41-8.94.63-.79,1.59-1.26,2.6-1.26h14.63c1.51,0,2.45,1.6,1.77,2.94-7.11,13.9-21.98,23.09-39.73,23.09-24.78,0-43.13-18.04-43.13-41.87Zm21.7-7.68h42.26c1.39,0,2.36-1.39,1.88-2.7-3.46-9.47-12.27-15.65-23.18-15.65s-19.29,6.06-22.84,15.64c-.49,1.31.48,2.71,1.88,2.71Z"/>
    <path class="cls-2" d="m1121.45,764.11c0-23.84,16.78-41.87,39.37-41.87,10.39,0,19.19,3.92,25.64,10.56.89.92,2.43.32,2.43-.96v-4.39c0-1.84,1.49-3.33,3.33-3.33h10.9c1.84,0,3.33,1.49,3.33,3.33v73.32c0,1.84-1.49,3.33-3.33,3.33h-10.9c-1.84,0-3.33-1.49-3.33-3.33v-4.39c0-1.28-1.54-1.87-2.43-.96-6.45,6.64-15.25,10.56-25.64,10.56-22.58,0-39.37-18.04-39.37-41.87Zm67.42-1.16c-.54-13.45-11.18-23.8-24.65-23.78-14.25.02-24.73,10.84-24.73,24.94s10.51,24.94,24.78,24.94,25.19-11.42,24.6-26.09Z"/>
    <path class="cls-2" d="m1227.82,695.89h10.9c1.84,0,3.33,1.49,3.33,3.33v101.54c0,1.84-1.49,3.33-3.33,3.33h-10.9c-1.84,0-3.33-1.49-3.33-3.33v-101.54c0-1.84,1.49-3.33,3.33-3.33Z"/>
    <path class="cls-2" d="m1257.35,789.73l37.43-46.38c.74-.92.09-2.29-1.1-2.29h-33.71c-1.84,0-3.33-1.49-3.33-3.33v-10.27c0-1.84,1.49-3.33,3.33-3.33h56.31c3.35,0,6.06,2.72,6.06,6.06v4.5c0,1.39-.47,2.73-1.34,3.81l-37.43,46.38c-.74.92-.09,2.29,1.1,2.29h35.44c1.84,0,3.33,1.49,3.33,3.33v10.27c0,1.84-1.49,3.33-3.33,3.33h-58.04c-3.35,0-6.06-2.72-6.06-6.06v-4.5c0-1.39.47-2.73,1.34-3.81Z"/>
  </g>
  <path class="cls-1" d="m595.78,695.89h11.99c1.84,0,3.33,1.49,3.33,3.33v85.31c0,1.1.9,2,2,2h42.5c1.84,0,3.33,1.49,3.33,3.33v10.9c0,1.84-1.49,3.33-3.33,3.33h-59.83c-1.84,0-3.33-1.49-3.33-3.33v-101.54c0-1.84,1.49-3.33,3.33-3.33Z"/>
  <path class="cls-1" d="m668.19,700.12c0-6.43,4.86-11.14,11.14-11.14s11.29,4.71,11.29,11.14-4.86,11.14-11.29,11.14-11.14-4.86-11.14-11.14Zm5.69,24h10.9c1.84,0,3.33,1.49,3.33,3.33v73.32c0,1.84-1.49,3.33-3.33,3.33h-10.9c-1.84,0-3.33-1.49-3.33-3.33v-73.32c0-1.84,1.49-3.33,3.33-3.33Z"/>
  <path class="cls-1" d="m702.24,724.12h12.78c1.36,0,2.59.83,3.1,2.09l21.22,52.97c.47,1.18,2.14,1.18,2.61,0l21.07-52.96c.5-1.27,1.73-2.1,3.1-2.1h12.31c2.39,0,4,2.44,3.07,4.63l-31.05,73.32c-.52,1.23-1.73,2.03-3.07,2.03h-13.94c-1.34,0-2.54-.8-3.07-2.03l-31.19-73.32c-.94-2.2.68-4.64,3.07-4.64Z"/>
  <path class="cls-1" d="m863.91,779.95c1.51,0,2.45,1.6,1.77,2.94-7.11,13.89-21.98,23.09-39.73,23.09-24.77,0-43.13-18.04-43.13-41.87s18.36-41.87,42.66-41.87c15.09,0,27.85,6.85,35.41,17.72h0c2.36,3.42,1.94,8.05-1,10.99l-25.9,25.9c-3.49,3.47-9.13,3.47-12.63,0l-12.44-12.44c-1.85-1.85-1.85-4.84,0-6.69l2.71-2.71c1.85-1.85,4.84-1.85,6.69,0l9.32,9.32,16.08-16.08c.69-.69.72-1.82.05-2.54-4.45-4.8-10.89-7.65-18.3-7.65-11.6,0-20.86,7.21-23.68,18.34-1.85,6.63-.15,14.44-.15,14.44,2.67,11.6,12.07,19.29,24.62,19.29,8.61,0,16.13-3.54,20.41-8.94.63-.79,1.59-1.26,2.6-1.26h14.63Z"/>
</svg>